<svg width="120" height="120" viewBox="0 0 120 120" fill="none" xmlns="http://www.w3.org/2000/svg">
<path d="M110 77.5H60C59.6716 77.4998 59.3465 77.5643 59.0431 77.6899C58.7397 77.8155 58.464 77.9996 58.2318 78.2318C57.9996 78.464 57.8155 78.7397 57.6899 79.0431C57.5643 79.3465 57.4998 79.6716 57.5 80C57.4944 84.6396 55.6488 89.0875 52.3682 92.3682C49.0875 95.6488 44.6396 97.4944 40 97.5C38.0115 97.4978 36.1052 96.707 34.6991 95.3009C33.293 93.8949 32.5022 91.9885 32.5 90V30C32.4996 27.2945 31.6201 24.6623 29.9939 22.5H80C81.9885 22.5022 83.8949 23.293 85.3009 24.6991C86.707 26.1051 87.4978 28.0115 87.5 30V70H92.5V30C92.4969 26.6857 91.179 23.5081 88.8355 21.1645C86.4919 18.821 83.3143 17.5031 80 17.5H20C19.8587 17.5 18.4815 17.5793 17.92 17.6709C14.9495 18.2518 12.2779 19.8591 10.3729 22.2112C8.46793 24.5634 7.45096 27.5107 7.5 30.5371C7.50347 33.7088 8.76496 36.7496 11.0077 38.9923C13.2504 41.235 16.2912 42.4965 19.4629 42.5H27.5V90C27.5031 93.3143 28.821 96.4919 31.1645 98.8355C33.5081 101.179 36.6857 102.497 40 102.5H90C95.9654 102.493 101.685 100.121 105.903 95.9027C110.121 91.6846 112.494 85.9654 112.5 80C112.5 79.6716 112.436 79.3465 112.31 79.0431C112.185 78.7397 112 78.464 111.768 78.2318C111.536 77.9996 111.26 77.8155 110.957 77.6899C110.654 77.5643 110.328 77.4998 110 77.5ZM27.5 37.5H19.4629C17.617 37.4974 15.8475 36.763 14.5422 35.4578C13.237 34.1525 12.5026 32.383 12.5 30.5371C12.4442 28.6956 13.0363 26.8928 14.173 25.4429C15.3097 23.993 16.9191 22.9879 18.7207 22.6026C19.7982 22.4178 20.9031 22.4706 21.9582 22.7571C23.0132 23.0436 23.993 23.5571 24.829 24.2615C25.6651 24.966 26.3373 25.8445 26.7986 26.8356C27.2599 27.8268 27.4993 28.9067 27.5 30V37.5ZM90 97.5H54.126C58.7396 93.7795 61.6995 88.3895 62.3633 82.5H107.324C106.717 86.6628 104.632 90.4683 101.452 93.2221C98.2715 95.9758 94.2069 97.4942 90 97.5Z" fill="#40348D"/>
</svg>
